<svg id="visual" viewBox="0 0 8640 540" width="8640" height="540" xmlns="http://www.w3.org/2000/svg" xmlns:xlink="http://www.w3.org/1999/xlink" version="1.1"><path d="M0 415L130.8 416.2C261.7 417.3 523.3 419.7 785.2 431.5C1047 443.3 1309 464.7 1570.8 451.3C1832.7 438 2094.3 390 2356.2 368.5C2618 347 2880 352 3141.8 375.3C3403.7 398.7 3665.3 440.3 3927.2 458.7C4189 477 4451 472 4712.8 456C4974.7 440 5236.3 413 5498.2 404.8C5760 396.7 6022 407.3 6283.8 421C6545.7 434.7 6807.3 451.3 7069.2 451C7331 450.7 7593 433.3 7854.8 412.2C8116.7 391 8378.3 366 8509.2 353.5L8640 341L8640 541L8509.2 541C8378.3 541 8116.7 541 7854.8 541C7593 541 7331 541 7069.2 541C6807.3 541 6545.7 541 6283.8 541C6022 541 5760 541 5498.2 541C5236.3 541 4974.7 541 4712.8 541C4451 541 4189 541 3927.2 541C3665.3 541 3403.7 541 3141.8 541C2880 541 2618 541 2356.2 541C2094.3 541 1832.7 541 1570.8 541C1309 541 1047 541 785.2 541C523.3 541 261.7 541 130.8 541L0 541Z" fill="#b1dcff"></path><path d="M0 447L130.8 448.2C261.7 449.3 523.3 451.7 785.2 455.7C1047 459.7 1309 465.3 1570.8 456.3C1832.7 447.3 2094.3 423.7 2356.2 424.7C2618 425.7 2880 451.3 3141.8 460.2C3403.7 469 3665.3 461 3927.2 452C4189 443 4451 433 4712.8 427.3C4974.7 421.7 5236.3 420.3 5498.2 429.5C5760 438.7 6022 458.3 6283.8 455.7C6545.7 453 6807.3 428 7069.2 411C7331 394 7593 385 7854.8 397.7C8116.7 410.3 8378.3 444.7 8509.2 461.8L8640 479L8640 541L8509.2 541C8378.3 541 8116.7 541 7854.8 541C7593 541 7331 541 7069.2 541C6807.3 541 6545.7 541 6283.8 541C6022 541 5760 541 5498.2 541C5236.3 541 4974.7 541 4712.8 541C4451 541 4189 541 3927.2 541C3665.3 541 3403.7 541 3141.8 541C2880 541 2618 541 2356.2 541C2094.3 541 1832.7 541 1570.8 541C1309 541 1047 541 785.2 541C523.3 541 261.7 541 130.8 541L0 541Z" fill="#96c8f3"></path><path d="M0 476L130.8 477.8C261.7 479.7 523.3 483.3 785.2 479C1047 474.7 1309 462.3 1570.8 456.2C1832.7 450 2094.3 450 2356.2 459.3C2618 468.7 2880 487.3 3141.8 484.5C3403.7 481.7 3665.3 457.3 3927.2 455.3C4189 453.3 4451 473.7 4712.8 471.2C4974.7 468.7 5236.3 443.3 5498.2 441.3C5760 439.3 6022 460.7 6283.8 472.7C6545.7 484.7 6807.3 487.3 7069.2 485C7331 482.7 7593 475.3 7854.8 478.5C8116.7 481.7 8378.3 495.3 8509.2 502.2L8640 509L8640 541L8509.2 541C8378.3 541 8116.7 541 7854.8 541C7593 541 7331 541 7069.2 541C6807.3 541 6545.7 541 6283.8 541C6022 541 5760 541 5498.2 541C5236.3 541 4974.7 541 4712.8 541C4451 541 4189 541 3927.2 541C3665.3 541 3403.7 541 3141.8 541C2880 541 2618 541 2356.2 541C2094.3 541 1832.7 541 1570.8 541C1309 541 1047 541 785.2 541C523.3 541 261.7 541 130.8 541L0 541Z" fill="#7bb5e8"></path><path d="M0 498L130.8 489.3C261.7 480.7 523.3 463.3 785.2 464.3C1047 465.3 1309 484.7 1570.8 493.2C1832.7 501.7 2094.3 499.3 2356.2 488C2618 476.7 2880 456.3 3141.8 453.3C3403.7 450.3 3665.3 464.7 3927.2 472.3C4189 480 4451 481 4712.8 487.7C4974.7 494.3 5236.3 506.7 5498.2 512.5C5760 518.3 6022 517.7 6283.8 510.3C6545.7 503 6807.3 489 7069.2 487.2C7331 485.3 7593 495.7 7854.8 491C8116.7 486.3 8378.3 466.7 8509.2 456.8L8640 447L8640 541L8509.2 541C8378.3 541 8116.7 541 7854.8 541C7593 541 7331 541 7069.2 541C6807.3 541 6545.7 541 6283.8 541C6022 541 5760 541 5498.2 541C5236.3 541 4974.7 541 4712.8 541C4451 541 4189 541 3927.2 541C3665.3 541 3403.7 541 3141.8 541C2880 541 2618 541 2356.2 541C2094.3 541 1832.7 541 1570.8 541C1309 541 1047 541 785.2 541C523.3 541 261.7 541 130.8 541L0 541Z" fill="#5fa2dd"></path><path d="M0 509L130.8 510.8C261.7 512.7 523.3 516.3 785.2 511C1047 505.7 1309 491.3 1570.8 489.5C1832.7 487.7 2094.3 498.3 2356.2 506.8C2618 515.3 2880 521.7 3141.8 526C3403.7 530.3 3665.3 532.7 3927.2 527.5C4189 522.3 4451 509.7 4712.8 501.5C4974.7 493.3 5236.3 489.7 5498.2 494.8C5760 500 6022 514 6283.8 521.8C6545.7 529.7 6807.3 531.3 7069.2 532C7331 532.7 7593 532.3 7854.8 528.5C8116.7 524.7 8378.3 517.3 8509.2 513.7L8640 510L8640 541L8509.2 541C8378.3 541 8116.7 541 7854.8 541C7593 541 7331 541 7069.2 541C6807.3 541 6545.7 541 6283.8 541C6022 541 5760 541 5498.2 541C5236.3 541 4974.7 541 4712.8 541C4451 541 4189 541 3927.2 541C3665.3 541 3403.7 541 3141.8 541C2880 541 2618 541 2356.2 541C2094.3 541 1832.7 541 1570.8 541C1309 541 1047 541 785.2 541C523.3 541 261.7 541 130.8 541L0 541Z" fill="#3f8fd1"></path></svg>